<svg width="54" height="27" viewBox="0 0 54 27" fill="none" xmlns="http://www.w3.org/2000/svg">
<path d="M1.68482 21.6266C1.44338 21.2367 1.12148 20.6138 0.922648 20.1525C-0.237176 17.4516 -0.28925 14.6555 0.685949 11.9736C1.76056 9.03012 3.81511 6.78091 6.47087 5.63015C9.80832 4.18933 13.4961 4.46988 16.6963 6.37672C18.7271 7.5465 20.1663 9.35347 21.2598 11.9118C21.3971 12.2399 21.5202 12.587 21.6433 12.8866L1.68482 21.6266ZM8.35026 9.97165C5.97854 10.994 4.75717 13.229 5.01281 15.8443L15.0488 11.5028C13.3209 9.4676 11.077 8.79236 8.35026 9.97165V9.97165ZM16.2986 19.4155C16.2939 19.4155 16.2939 19.4202 16.2939 19.4202L16.0856 19.2776C15.4844 20.2524 14.5518 21.0465 13.373 21.5601C11.1291 22.5396 9.05089 22.2876 7.55495 20.9704L7.41766 21.1796C7.41766 21.1796 7.41766 21.1749 7.41293 21.1749L4.86605 25.0028C5.5004 25.4451 6.17736 25.816 6.88746 26.1155C9.69944 27.2901 12.5777 27.233 15.4134 25.9967C17.4632 25.1027 19.0727 23.7427 20.171 22.0166L16.2986 19.4155ZM28.6164 0V21.2747L31.9113 22.6157L30.0413 27L26.4056 25.4783C25.5914 25.1217 25.0328 24.5796 24.6162 23.9662C24.2138 23.3433 23.9156 22.4826 23.9156 21.3318V0H28.6164ZM37.147 15.8586C37.147 14.0468 37.9471 12.4206 39.2063 11.3174L35.8263 7.53223C33.535 9.56745 32.0912 12.5395 32.0912 15.8491C32.0864 19.1634 33.5303 22.1402 35.8168 24.1754L39.1921 20.3903C37.9376 19.2823 37.147 17.6656 37.147 15.8586V15.8586ZM43.1497 21.8929C42.487 21.8929 41.8431 21.7788 41.2467 21.5791L39.6324 26.3961C40.7354 26.767 41.9142 26.9715 43.145 26.9715C48.4944 26.9762 52.9585 23.1626 53.9953 18.0983L49.0341 17.0807C48.4707 19.8339 46.0517 21.8977 43.1497 21.8929V21.8929ZM43.1639 4.74568C41.9378 4.74568 40.7591 4.9454 39.656 5.31155L41.2561 10.1333C41.8573 9.9336 42.4964 9.82423 43.1592 9.82423C46.0659 9.82899 48.4896 11.9023 49.0388 14.6603L54 13.6522C52.9822 8.57837 48.5181 4.75044 43.1639 4.74568V4.74568Z" fill="white"/>
<path d="M1.68482 21.6266C1.44338 21.2367 1.12148 20.6138 0.922648 20.1525C-0.237176 17.4516 -0.28925 14.6555 0.685949 11.9736C1.76056 9.03012 3.81511 6.78091 6.47087 5.63015C9.80832 4.18933 13.4961 4.46988 16.6963 6.37672C18.7271 7.5465 20.1663 9.35347 21.2598 11.9118C21.3971 12.2399 21.5202 12.587 21.6433 12.8866L1.68482 21.6266ZM8.35026 9.97165C5.97854 10.994 4.75717 13.229 5.01281 15.8443L15.0488 11.5028C13.3209 9.4676 11.077 8.79236 8.35026 9.97165V9.97165ZM16.2986 19.4155C16.2939 19.4155 16.2939 19.4202 16.2939 19.4202L16.0856 19.2776C15.4844 20.2524 14.5518 21.0465 13.373 21.5601C11.1291 22.5396 9.05089 22.2876 7.55495 20.9704L7.41766 21.1796C7.41766 21.1796 7.41766 21.1749 7.41293 21.1749L4.86605 25.0028C5.5004 25.4451 6.17736 25.816 6.88746 26.1155C9.69944 27.2901 12.5777 27.233 15.4134 25.9967C17.4632 25.1027 19.0727 23.7427 20.171 22.0166L16.2986 19.4155ZM28.6164 0V21.2747L31.9113 22.6157L30.0413 27L26.4056 25.4783C25.5914 25.1217 25.0328 24.5796 24.6162 23.9662C24.2138 23.3433 23.9156 22.4826 23.9156 21.3318V0H28.6164ZM37.147 15.8586C37.147 14.0468 37.9471 12.4206 39.2063 11.3174L35.8263 7.53223C33.535 9.56745 32.0912 12.5395 32.0912 15.8491C32.0864 19.1634 33.5303 22.1402 35.8168 24.1754L39.1921 20.3903C37.9376 19.2823 37.147 17.6656 37.147 15.8586V15.8586ZM43.1497 21.8929C42.487 21.8929 41.8431 21.7788 41.2467 21.5791L39.6324 26.3961C40.7354 26.767 41.9142 26.9715 43.145 26.9715C48.4944 26.9762 52.9585 23.1626 53.9953 18.0983L49.0341 17.0807C48.4707 19.8339 46.0517 21.8977 43.1497 21.8929V21.8929ZM43.1639 4.74568C41.9378 4.74568 40.7591 4.9454 39.656 5.31155L41.2561 10.1333C41.8573 9.9336 42.4964 9.82423 43.1592 9.82423C46.0659 9.82899 48.4896 11.9023 49.0388 14.6603L54 13.6522C52.9822 8.57837 48.5181 4.75044 43.1639 4.74568V4.74568Z" fill="black" fill-opacity="0.05"/>
</svg>
